<?xml version="1.0" encoding="UTF-8"?>
<svg id="Layer_1" data-name="Layer 1" xmlns="http://www.w3.org/2000/svg" xmlns:xlink="http://www.w3.org/1999/xlink" viewBox="0 0 2406.45 475.5">
  <defs>
    <clipPath id="clippath">
      <path className="cls-1" d="M163.69,36.75H2225.36c84.72,0,153.4,68.68,153.4,153.4h0c0,84.72-68.68,153.4-153.4,153.4H163.69c-84.72,0-153.4-68.68-153.4-153.4h0C10.29,105.43,78.97,36.75,163.69,36.75Z"/>
    </clipPath>
  </defs>
  <g>
    <path className="cls-6" d="M1219.06,380.3l-19.58-35.96-19.58,35.96h-34.46c-2.74,0-4.97,2.22-4.97,4.97v48.5c0,2.74,2.22,4.97,4.97,4.97h108.07c2.74,0,4.97-2.22,4.97-4.97v-48.5c0-2.74-2.22-4.97-4.97-4.97h-34.46Z"/>
    <g className="cls-2">
      <g>
        <path className="cls-3" d="M163.69,36.75H2225.36c84.72,0,153.4,68.68,153.4,153.4h0c0,84.72-68.68,153.4-153.4,153.4H163.69c-84.72,0-153.4-68.68-153.4-153.4h0C10.29,105.43,78.97,36.75,163.69,36.75Z"/>
        <path className="cls-7" d="M1217.02,36.75H10.29V445.81H1217.02c-14.01-60.69-21.99-130.4-21.99-204.53s7.97-143.84,21.99-204.53Z"/>
        <circle className="cls-5" cx="815.86" cy="134.93" r="36.82"/>
        <circle className="cls-5" cx="949.1" cy="226.96" r="55.22"/>
        <circle className="cls-5" cx="585.02" cy="245.37" r="55.22"/>
      </g>
    </g>
  </g>
  <text className="cls-4" transform="translate(1171.88 420.15)"><tspan x="0" y="0">50%</tspan></text>
</svg>






